<svg version="1.1" xmlns="http://www.w3.org/2000/svg" xmlns:xlink="http://www.w3.org/1999/xlink" width="636" height="623"><defs/><g><g transform="translate(-46,-22) scale(1,1)"><rect fill="#C0C0C0" stroke="none" x="519" y="527" width="114" height="115" opacity="0.2"/></g><g transform="translate(-46,-22) scale(1,1)"><rect fill="#ffffff" stroke="none" x="512" y="520" width="114" height="115"/></g><g transform="translate(-46,-22) scale(1,1)"><path fill="none" stroke="#000000" d="M 512 520 L 626 520 L 626 635 L 512 635 L 512 520 Z Z" stroke-miterlimit="10"/></g><g transform="translate(-46,-22) scale(1,1)"><path fill="none" stroke="#000000" d="M 512 545 L 626 545" stroke-miterlimit="10"/></g><g transform="translate(-46,-22) scale(1,1)"><path fill="none" stroke="#000000" d="M 512 598 L 626 598" stroke-miterlimit="10"/></g><g transform="translate(-46,-22) scale(1,1)"><g><path fill="none" stroke="none"/><text fill="#000000" stroke="none" font-family="Arial" font-size="13px" font-style="normal" font-weight="bold" text-decoration="none" x="544.5" y="539.5">APIUser</text></g></g><g transform="translate(-46,-22) scale(1,1)"><g><path fill="none" stroke="none"/><text fill="#000000" stroke="none" font-family="Arial" font-size="13px" font-style="normal" font-weight="normal" text-decoration="none" x="517" y="562.5">-APIUserSchema</text></g></g><g transform="translate(-46,-22) scale(1,1)"><g><path fill="none" stroke="none"/><text fill="#000000" stroke="none" font-family="Arial" font-size="13px" font-style="normal" font-weight="normal" text-decoration="none" x="517" y="577.5">-conn</text></g></g><g transform="translate(-46,-22) scale(1,1)"><g><path fill="none" stroke="none"/><text fill="#000000" stroke="none" font-family="Arial" font-size="13px" font-style="normal" font-weight="normal" text-decoration="none" x="517" y="592.5">-model</text></g></g><g transform="translate(-46,-22) scale(1,1)"><g><path fill="none" stroke="none"/><text fill="#000000" stroke="none" font-family="Arial" font-size="13px" font-style="normal" font-weight="normal" text-decoration="none" x="517" y="615.5">+findByEmail()</text><path fill="none" stroke="#000000" d="M 517 615.5 L 603 615.5" stroke-miterlimit="10"/></g></g><g transform="translate(-46,-22) scale(1,1)"><g><path fill="none" stroke="none"/><text fill="#000000" stroke="none" font-family="Arial" font-size="13px" font-style="normal" font-weight="normal" text-decoration="none" x="517" y="630.5">+setPassword()</text><path fill="none" stroke="#000000" d="M 517 630.5 L 608 630.5" stroke-miterlimit="10"/></g></g><g transform="translate(-46,-22) scale(1,1)"><rect fill="#C0C0C0" stroke="none" x="351" y="527" width="120" height="72" opacity="0.2"/></g><g transform="translate(-46,-22) scale(1,1)"><rect fill="#ffffff" stroke="none" x="344" y="520" width="120" height="72"/></g><g transform="translate(-46,-22) scale(1,1)"><path fill="none" stroke="#000000" d="M 344 520 L 464 520 L 464 592 L 344 592 L 344 520 Z Z" stroke-miterlimit="10"/></g><g transform="translate(-46,-22) scale(1,1)"><path fill="none" stroke="#000000" d="M 344 545 L 464 545" stroke-miterlimit="10"/></g><g transform="translate(-46,-22) scale(1,1)"><path fill="none" stroke="#000000" d="M 344 583 L 464 583" stroke-miterlimit="10"/></g><g transform="translate(-46,-22) scale(1,1)"><g><path fill="none" stroke="none"/><text fill="#000000" stroke="none" font-family="Arial" font-size="13px" font-style="normal" font-weight="bold" text-decoration="none" x="375.5" y="539.5">BankUser</text></g></g><g transform="translate(-46,-22) scale(1,1)"><g><path fill="none" stroke="none"/><text fill="#000000" stroke="none" font-family="Arial" font-size="13px" font-style="normal" font-weight="normal" text-decoration="none" x="349" y="562.5">-bankUserSchema</text></g></g><g transform="translate(-46,-22) scale(1,1)"><g><path fill="none" stroke="none"/><text fill="#000000" stroke="none" font-family="Arial" font-size="13px" font-style="normal" font-weight="normal" text-decoration="none" x="349" y="577.5">-conn</text></g></g><g transform="translate(-46,-22) scale(1,1)"><rect fill="#C0C0C0" stroke="none" x="191" y="527" width="117" height="57" opacity="0.2"/></g><g transform="translate(-46,-22) scale(1,1)"><rect fill="#ffffff" stroke="none" x="184" y="520" width="117" height="57"/></g><g transform="translate(-46,-22) scale(1,1)"><path fill="none" stroke="#000000" d="M 184 520 L 301 520 L 301 577 L 184 577 L 184 520 Z Z" stroke-miterlimit="10"/></g><g transform="translate(-46,-22) scale(1,1)"><path fill="none" stroke="#000000" d="M 184 545 L 301 545" stroke-miterlimit="10"/></g><g transform="translate(-46,-22) scale(1,1)"><path fill="none" stroke="#000000" d="M 184 568 L 301 568" stroke-miterlimit="10"/></g><g transform="translate(-46,-22) scale(1,1)"><g><path fill="none" stroke="none"/><text fill="#000000" stroke="none" font-family="Arial" font-size="13px" font-style="normal" font-weight="bold" text-decoration="none" x="193" y="539.5">EmailTransporter</text></g></g><g transform="translate(-46,-22) scale(1,1)"><g><path fill="none" stroke="none"/><text fill="#000000" stroke="none" font-family="Arial" font-size="13px" font-style="normal" font-weight="normal" text-decoration="none" x="189" y="562.5">+transport</text></g></g><g transform="translate(-46,-22) scale(1,1)"><rect fill="#C0C0C0" stroke="none" x="63" y="527" width="82" height="87" opacity="0.2"/></g><g transform="translate(-46,-22) scale(1,1)"><rect fill="#ffffff" stroke="none" x="56" y="520" width="82" height="87"/></g><g transform="translate(-46,-22) scale(1,1)"><path fill="none" stroke="#000000" d="M 56 520 L 138 520 L 138 607 L 56 607 L 56 520 Z Z" stroke-miterlimit="10"/></g><g transform="translate(-46,-22) scale(1,1)"><path fill="none" stroke="#000000" d="M 56 545 L 138 545" stroke-miterlimit="10"/></g><g transform="translate(-46,-22) scale(1,1)"><path fill="none" stroke="#000000" d="M 56 598 L 138 598" stroke-miterlimit="10"/></g><g transform="translate(-46,-22) scale(1,1)"><g><path fill="none" stroke="none"/><text fill="#000000" stroke="none" font-family="Arial" font-size="13px" font-style="normal" font-weight="bold" text-decoration="none" x="73.5" y="539.5">jsonRes</text></g></g><g transform="translate(-46,-22) scale(1,1)"><g><path fill="none" stroke="none"/><text fill="#000000" stroke="none" font-family="Arial" font-size="13px" font-style="normal" font-weight="normal" text-decoration="none" x="61" y="562.5">+loginInvalid</text></g></g><g transform="translate(-46,-22) scale(1,1)"><g><path fill="none" stroke="none"/><text fill="#000000" stroke="none" font-family="Arial" font-size="13px" font-style="normal" font-weight="normal" text-decoration="none" x="61" y="577.5">+undef</text></g></g><g transform="translate(-46,-22) scale(1,1)"><g><path fill="none" stroke="none"/><text fill="#000000" stroke="none" font-family="Arial" font-size="13px" font-style="normal" font-weight="normal" text-decoration="none" x="61" y="592.5">+okay</text></g></g><g transform="translate(-46,-22) scale(1,1)"><rect fill="#C0C0C0" stroke="none" x="119" y="359" width="124" height="145" opacity="0.2"/></g><g transform="translate(-46,-22) scale(1,1)"><rect fill="#ffffff" stroke="none" x="112" y="352" width="124" height="145"/></g><g transform="translate(-46,-22) scale(1,1)"><path fill="none" stroke="#000000" d="M 112 352 L 236 352 L 236 497 L 112 497 L 112 352 Z Z" stroke-miterlimit="10"/></g><g transform="translate(-46,-22) scale(1,1)"><path fill="none" stroke="#000000" d="M 112 377 L 236 377" stroke-miterlimit="10"/></g><g transform="translate(-46,-22) scale(1,1)"><path fill="none" stroke="#000000" d="M 112 400 L 236 400" stroke-miterlimit="10"/></g><g transform="translate(-46,-22) scale(1,1)"><g><path fill="none" stroke="none"/><text fill="#000000" stroke="none" font-family="Arial" font-size="13px" font-style="normal" font-weight="bold" text-decoration="none" x="151" y="371.5">account</text></g></g><g transform="translate(-46,-22) scale(1,1)"><g><path fill="none" stroke="none"/><text fill="#000000" stroke="none" font-family="Arial" font-size="13px" font-style="normal" font-weight="normal" text-decoration="none" x="117" y="394.5">-router</text></g></g><g transform="translate(-46,-22) scale(1,1)"><g><path fill="none" stroke="none"/><text fill="#000000" stroke="none" font-family="Arial" font-size="13px" font-style="normal" font-weight="normal" text-decoration="none" x="117" y="417.5">+createAccount()</text></g></g><g transform="translate(-46,-22) scale(1,1)"><g><path fill="none" stroke="none"/><text fill="#000000" stroke="none" font-family="Arial" font-size="13px" font-style="normal" font-weight="normal" text-decoration="none" x="117" y="432.5">+changePassword()</text></g></g><g transform="translate(-46,-22) scale(1,1)"><g><path fill="none" stroke="none"/><text fill="#000000" stroke="none" font-family="Arial" font-size="13px" font-style="normal" font-weight="normal" text-decoration="none" x="117" y="447.5">+changeEmail()</text></g></g><g transform="translate(-46,-22) scale(1,1)"><g><path fill="none" stroke="none"/><text fill="#000000" stroke="none" font-family="Arial" font-size="13px" font-style="normal" font-weight="normal" text-decoration="none" x="117" y="462.5">+initateDelete()</text></g></g><g transform="translate(-46,-22) scale(1,1)"><g><path fill="none" stroke="none"/><text fill="#000000" stroke="none" font-family="Arial" font-size="13px" font-style="normal" font-weight="normal" text-decoration="none" x="117" y="477.5">+confirmDelete()</text></g></g><g transform="translate(-46,-22) scale(1,1)"><rect fill="#C0C0C0" stroke="none" x="391" y="359" width="88" height="70" opacity="0.2"/></g><g transform="translate(-46,-22) scale(1,1)"><rect fill="#ffffff" stroke="none" x="384" y="352" width="88" height="70"/></g><g transform="translate(-46,-22) scale(1,1)"><path fill="none" stroke="#000000" d="M 384 352 L 472 352 L 472 422 L 384 422 L 384 352 Z Z" stroke-miterlimit="10"/></g><g transform="translate(-46,-22) scale(1,1)"><path fill="none" stroke="#000000" d="M 384 377 L 472 377" stroke-miterlimit="10"/></g><g transform="translate(-46,-22) scale(1,1)"><path fill="none" stroke="#000000" d="M 384 400 L 472 400" stroke-miterlimit="10"/></g><g transform="translate(-46,-22) scale(1,1)"><g><path fill="none" stroke="none"/><text fill="#000000" stroke="none" font-family="Arial" font-size="13px" font-style="normal" font-weight="bold" text-decoration="none" x="412.5" y="371.5">index</text></g></g><g transform="translate(-46,-22) scale(1,1)"><g><path fill="none" stroke="none"/><text fill="#000000" stroke="none" font-family="Arial" font-size="13px" font-style="normal" font-weight="normal" text-decoration="none" x="389" y="394.5">-router</text></g></g><g transform="translate(-46,-22) scale(1,1)"><g><path fill="none" stroke="none"/><text fill="#000000" stroke="none" font-family="Arial" font-size="13px" font-style="normal" font-weight="normal" text-decoration="none" x="389" y="417.5">+default()</text></g></g><g transform="translate(-46,-22) scale(1,1)"><rect fill="#C0C0C0" stroke="none" x="263" y="39" width="105" height="145" opacity="0.2"/></g><g transform="translate(-46,-22) scale(1,1)"><rect fill="#ffffff" stroke="none" x="256" y="32" width="105" height="145"/></g><g transform="translate(-46,-22) scale(1,1)"><path fill="none" stroke="#000000" d="M 256 32 L 361 32 L 361 177 L 256 177 L 256 32 Z Z" stroke-miterlimit="10"/></g><g transform="translate(-46,-22) scale(1,1)"><path fill="none" stroke="#000000" d="M 256 57 L 361 57" stroke-miterlimit="10"/></g><g transform="translate(-46,-22) scale(1,1)"><path fill="none" stroke="#000000" d="M 256 110 L 361 110" stroke-miterlimit="10"/></g><g transform="translate(-46,-22) scale(1,1)"><g><path fill="none" stroke="none"/><text fill="#000000" stroke="none" font-family="Arial" font-size="13px" font-style="normal" font-weight="bold" text-decoration="none" x="295" y="51.5">www</text></g></g><g transform="translate(-46,-22) scale(1,1)"><g><path fill="none" stroke="none"/><text fill="#000000" stroke="none" font-family="Arial" font-size="13px" font-style="normal" font-weight="normal" text-decoration="none" x="261" y="74.5">-emailPass</text></g></g><g transform="translate(-46,-22) scale(1,1)"><g><path fill="none" stroke="none"/><text fill="#000000" stroke="none" font-family="Arial" font-size="13px" font-style="normal" font-weight="normal" text-decoration="none" x="261" y="89.5">-port</text></g></g><g transform="translate(-46,-22) scale(1,1)"><g><path fill="none" stroke="none"/><text fill="#000000" stroke="none" font-family="Arial" font-size="13px" font-style="normal" font-weight="normal" text-decoration="none" x="261" y="104.5">-server</text></g></g><g transform="translate(-46,-22) scale(1,1)"><g><path fill="none" stroke="none"/><text fill="#000000" stroke="none" font-family="Arial" font-size="13px" font-style="normal" font-weight="normal" text-decoration="none" x="261" y="127.5">-normalizePort()</text></g></g><g transform="translate(-46,-22) scale(1,1)"><g><path fill="none" stroke="none"/><text fill="#000000" stroke="none" font-family="Arial" font-size="13px" font-style="normal" font-weight="normal" text-decoration="none" x="261" y="142.5">-onError()</text></g></g><g transform="translate(-46,-22) scale(1,1)"><g><path fill="none" stroke="none"/><text fill="#000000" stroke="none" font-family="Arial" font-size="13px" font-style="normal" font-weight="normal" text-decoration="none" x="261" y="157.5">-onListening()</text></g></g><g transform="translate(-46,-22) scale(1,1)"><rect fill="#C0C0C0" stroke="none" x="279" y="215" width="73" height="117" opacity="0.2"/></g><g transform="translate(-46,-22) scale(1,1)"><rect fill="#ffffff" stroke="none" x="272" y="208" width="73" height="117"/></g><g transform="translate(-46,-22) scale(1,1)"><path fill="none" stroke="#000000" d="M 272 208 L 345 208 L 345 325 L 272 325 L 272 208 Z Z" stroke-miterlimit="10"/></g><g transform="translate(-46,-22) scale(1,1)"><path fill="none" stroke="#000000" d="M 272 233 L 345 233" stroke-miterlimit="10"/></g><g transform="translate(-46,-22) scale(1,1)"><path fill="none" stroke="#000000" d="M 272 301 L 345 301" stroke-miterlimit="10"/></g><g transform="translate(-46,-22) scale(1,1)"><g><path fill="none" stroke="none"/><text fill="#000000" stroke="none" font-family="Arial" font-size="13px" font-style="normal" font-weight="bold" text-decoration="none" x="298" y="227.5">app</text></g></g><g transform="translate(-46,-22) scale(1,1)"><g><path fill="none" stroke="none"/><text fill="#000000" stroke="none" font-family="Arial" font-size="13px" font-style="normal" font-weight="normal" text-decoration="none" x="277" y="250.5">-routes</text></g></g><g transform="translate(-46,-22) scale(1,1)"><g><path fill="none" stroke="none"/><text fill="#000000" stroke="none" font-family="Arial" font-size="13px" font-style="normal" font-weight="normal" text-decoration="none" x="277" y="265.5">-users</text></g></g><g transform="translate(-46,-22) scale(1,1)"><g><path fill="none" stroke="none"/><text fill="#000000" stroke="none" font-family="Arial" font-size="13px" font-style="normal" font-weight="normal" text-decoration="none" x="277" y="280.5">-accounts</text></g></g><g transform="translate(-46,-22) scale(1,1)"><g><path fill="none" stroke="none"/><text fill="#000000" stroke="none" font-family="Arial" font-size="13px" font-style="normal" font-weight="normal" text-decoration="none" x="277" y="295.5">-app</text></g></g><g transform="translate(-46,-22) scale(1,1)"><path fill="none" stroke="#000000" d="M 308 178 L 308 207" stroke-miterlimit="10"/></g><g transform="translate(-46,-22) scale(1,1)"><path fill="none" stroke="#000000" d="M 303.790482243984 196.83732514237585 L 308 207 L 312.209517756016 196.83732514237585" stroke-miterlimit="10"/></g><g transform="translate(-46,-22) scale(1,1)"><path fill="none" stroke="#000000" d="M 271 310 L 236 351" stroke-miterlimit="10"/></g><g transform="translate(-46,-22) scale(1,1)"><path fill="none" stroke="#000000" d="M 239.39663268788576 340.5375487392492 L 236 351 L 245.79985224111454 346.00371177249326" stroke-miterlimit="10"/></g><g transform="translate(-46,-22) scale(1,1)"><path fill="none" stroke="#000000" d="M 346 304 L 392 351" stroke-miterlimit="10"/></g><g transform="translate(-46,-22) scale(1,1)"><path fill="none" stroke="#000000" d="M 381.88317361252246 346.6814558187234 L 392 351 L 387.899995332762 340.79265158189327" stroke-miterlimit="10"/></g><g transform="translate(-46,-22) scale(1,1)"><path fill="none" stroke="#000000" d="M 237 460 L 343 521" stroke-miterlimit="10"/></g><g transform="translate(-46,-22) scale(1,1)"><path fill="none" stroke="#000000" d="M 332.09209279965256 519.5795914289865 L 343 521 L 336.2913253826999 512.2825643174616" stroke-miterlimit="10"/></g><g transform="translate(-46,-22) scale(1,1)"><path fill="none" stroke="#000000" d="M 237 448 L 511 555" stroke-miterlimit="10"/></g><g transform="translate(-46,-22) scale(1,1)"><path fill="none" stroke="#000000" d="M 500.00228870885843 555.2243799382686 L 511 555 L 503.06478319259 547.3821043444138" stroke-miterlimit="10"/></g><g transform="translate(-46,-22) scale(1,1)"><path fill="none" stroke="#000000" d="M 133 498 L 121 519" stroke-miterlimit="10"/></g><g transform="translate(-46,-22) scale(1,1)"><path fill="none" stroke="#000000" d="M 215 498 L 226 519" stroke-miterlimit="10"/></g><g transform="translate(-46,-22) scale(1,1)"><path fill="#ffffff" stroke="none" d="M 432 40 L 661 40 L 671 50 L 671 141 L 432 141 L 432 40"/></g><g transform="translate(-46,-22) scale(1,1)"><path fill="none" stroke="#000000" d="M 432 40 L 661 40 L 671 50 L 671 141 L 432 141 L 432 40 L 432 40" stroke-miterlimit="10"/></g><g transform="translate(-46,-22) scale(1,1)"><path fill="none" stroke="#000000" d="M 661 40 L 661 50 L 671 50 L 661 40" stroke-miterlimit="10"/></g><g transform="translate(-46,-22) scale(1,1)"><g><path fill="none" stroke="none"/><text fill="#000000" stroke="none" font-family="Arial" font-size="13px" font-style="normal" font-weight="normal" text-decoration="none" x="437" y="58">Creating this diagram was a little tricky,</text><text fill="#000000" stroke="none" font-family="Arial" font-size="13px" font-style="normal" font-weight="normal" text-decoration="none" x="437" y="71">at least with the experience we've had</text><text fill="#000000" stroke="none" font-family="Arial" font-size="13px" font-style="normal" font-weight="normal" text-decoration="none" x="437" y="84">with node and javascript so far. What</text><text fill="#000000" stroke="none" font-family="Arial" font-size="13px" font-style="normal" font-weight="normal" text-decoration="none" x="437" y="97">constitutes a class, its variables, and</text><text fill="#000000" stroke="none" font-family="Arial" font-size="13px" font-style="normal" font-weight="normal" text-decoration="none" x="437" y="110">its methods isn't as straightforward as</text><text fill="#000000" stroke="none" font-family="Arial" font-size="13px" font-style="normal" font-weight="normal" text-decoration="none" x="437" y="123">in a language like Java.</text></g></g><g transform="translate(-46,-22) scale(1,1)"><path fill="#ffffff" stroke="none" d="M 432 192 L 661 192 L 671 202 L 671 306 L 432 306 L 432 192"/></g><g transform="translate(-46,-22) scale(1,1)"><path fill="none" stroke="#000000" d="M 432 192 L 661 192 L 671 202 L 671 306 L 432 306 L 432 192 L 432 192" stroke-miterlimit="10"/></g><g transform="translate(-46,-22) scale(1,1)"><path fill="none" stroke="#000000" d="M 661 192 L 661 202 L 671 202 L 661 192" stroke-miterlimit="10"/></g><g transform="translate(-46,-22) scale(1,1)"><g><path fill="none" stroke="none"/><text fill="#000000" stroke="none" font-family="Arial" font-size="13px" font-style="normal" font-weight="normal" text-decoration="none" x="437" y="210">www.js and app.js are for initialization</text><text fill="#000000" stroke="none" font-family="Arial" font-size="13px" font-style="normal" font-weight="normal" text-decoration="none" x="437" y="223">and configuration. account.js handles</text><text fill="#000000" stroke="none" font-family="Arial" font-size="13px" font-style="normal" font-weight="normal" text-decoration="none" x="437" y="236">the routing of all the /account</text><text fill="#000000" stroke="none" font-family="Arial" font-size="13px" font-style="normal" font-weight="normal" text-decoration="none" x="437" y="249">endpoints. BankUser and APIUser</text><text fill="#000000" stroke="none" font-family="Arial" font-size="13px" font-style="normal" font-weight="normal" text-decoration="none" x="437" y="262">define the users for each respective</text><text fill="#000000" stroke="none" font-family="Arial" font-size="13px" font-style="normal" font-weight="normal" text-decoration="none" x="437" y="275">DB. jsonRes.js and EmailTransporter.js</text><text fill="#000000" stroke="none" font-family="Arial" font-size="13px" font-style="normal" font-weight="normal" text-decoration="none" x="437" y="288">are essentially static data.</text></g></g></g></svg>